<?xml version="1.0" encoding="UTF-8"?>
<mxfile host="app.diagrams.net" modified="2025-07-12T10:00:00.000Z" agent="Claude" version="21.6.5">
  <diagram name="Sistema Gestionale" id="sistema-gestionale">
    <mxGraphModel dx="1422" dy="754" grid="1" gridSize="10" guides="1" tooltips="1" connect="1" arrows="1" fold="1" page="1" pageScale="1" pageWidth="1654" pageHeight="1169" math="0" shadow="0">
      <root>
        <mxCell id="0" />
        <mxCell id="1" parent="0" />
        
        <!-- Titolo -->
        <mxCell id="title" value="SISTEMA GESTIONALE INVESTIMENTI E POLIZZE" style="text;html=1;strokeColor=none;fillColor=none;align=center;verticalAlign=middle;whiteSpace=wrap;rounded=0;fontSize=18;fontStyle=1;fontColor=#2E7D32;" vertex="1" parent="1">
          <mxGeometry x="577" y="10" width="500" height="30" as="geometry" />
        </mxCell>
        
        <!-- Sezione Attori -->
        <mxCell id="actors-section" value="ATTORI DEL SISTEMA" style="text;html=1;strokeColor=none;fillColor=#E8F5E8;align=center;verticalAlign=middle;whiteSpace=wrap;rounded=1;fontSize=14;fontStyle=1;fontColor=#2E7D32;" vertex="1" parent="1">
          <mxGeometry x="50" y="60" width="200" height="30" as="geometry" />
        </mxCell>
        
        <!-- Attore: Utente Anonimo -->
        <mxCell id="user-anonymous" value="Utente Anonimo" style="shape=umlActor;verticalLabelPosition=bottom;verticalAlign=top;html=1;outlineConnect=0;fillColor=#FFF2CC;strokeColor=#D6B656;" vertex="1" parent="1">
          <mxGeometry x="80" y="120" width="30" height="60" as="geometry" />
        </mxCell>
        
        <!-- Attore: Utente Autenticato -->
        <mxCell id="user-authenticated" value="Utente Autenticato" style="shape=umlActor;verticalLabelPosition=bottom;verticalAlign=top;html=1;outlineConnect=0;fillColor=#D5E8D4;strokeColor=#82B366;" vertex="1" parent="1">
          <mxGeometry x="80" y="240" width="30" height="60" as="geometry" />
        </mxCell>
        
        <!-- Attore: Amministratore -->
        <mxCell id="admin" value="Amministratore" style="shape=umlActor;verticalLabelPosition=bottom;verticalAlign=top;html=1;outlineConnect=0;fillColor=#F8CECC;strokeColor=#B85450;" vertex="1" parent="1">
          <mxGeometry x="80" y="360" width="30" height="60" as="geometry" />
        </mxCell>
        
        <!-- Sistema centrale -->
        <mxCell id="system" value="SISTEMA GESTIONALE" style="rounded=1;whiteSpace=wrap;html=1;fillColor=#E1D5E7;strokeColor=#9673A6;fontSize=14;fontStyle=1;" vertex="1" parent="1">
          <mxGeometry x="450" y="120" width="200" height="80" as="geometry" />
        </mxCell>
        
        <!-- Use Cases Utente Anonimo -->
        <mxCell id="uc-login" value="Visualizza Login" style="ellipse;whiteSpace=wrap;html=1;fillColor=#FFF2CC;strokeColor=#D6B656;" vertex="1" parent="1">
          <mxGeometry x="250" y="100" width="120" height="50" as="geometry" />
        </mxCell>
        
        <mxCell id="uc-authenticate" value="Richiede Autenticazione" style="ellipse;whiteSpace=wrap;html=1;fillColor=#FFF2CC;strokeColor=#D6B656;" vertex="1" parent="1">
          <mxGeometry x="250" y="160" width="120" height="50" as="geometry" />
        </mxCell>
        
        <!-- Use Cases Utente Autenticato -->
        <mxCell id="uc-dashboard" value="Visualizza Dashboard" style="ellipse;whiteSpace=wrap;html=1;fillColor=#D5E8D4;strokeColor=#82B366;" vertex="1" parent="1">
          <mxGeometry x="250" y="240" width="120" height="50" as="geometry" />
        </mxCell>
        
        <mxCell id="uc-investment-list" value="Gestisce Richieste Investimento" style="ellipse;whiteSpace=wrap;html=1;fillColor=#D5E8D4;strokeColor=#82B366;" vertex="1" parent="1">
          <mxGeometry x="250" y="300" width="120" height="50" as="geometry" />
        </mxCell>
        
        <mxCell id="uc-insurance-list" value="Gestisce Polizze Assicurative" style="ellipse;whiteSpace=wrap;html=1;fillColor=#D5E8D4;strokeColor=#82B366;" vertex="1" parent="1">
          <mxGeometry x="250" y="360" width="120" height="50" as="geometry" />
        </mxCell>
        
        <mxCell id="uc-statistics" value="Visualizza Statistiche Personali" style="ellipse;whiteSpace=wrap;html=1;fillColor=#D5E8D4;strokeColor=#82B366;" vertex="1" parent="1">
          <mxGeometry x="250" y="420" width="120" height="50" as="geometry" />
        </mxCell>
        
        <!-- Use Cases Amministratore -->
        <mxCell id="uc-admin-users" value="Gestisce Utenti" style="ellipse;whiteSpace=wrap;html=1;fillColor=#F8CECC;strokeColor=#B85450;" vertex="1" parent="1">
          <mxGeometry x="250" y="500" width="120" height="50" as="geometry" />
        </mxCell>
        
        <mxCell id="uc-admin-approval" value="Approva/Rifiuta Richieste" style="ellipse;whiteSpace=wrap;html=1;fillColor=#F8CECC;strokeColor=#B85450;" vertex="1" parent="1">
          <mxGeometry x="250" y="560" width="120" height="50" as="geometry" />
        </mxCell>
        
        <mxCell id="uc-admin-types" value="Gestisce Tipologie" style="ellipse;whiteSpace=wrap;html=1;fillColor=#F8CECC;strokeColor=#B85450;" vertex="1" parent="1">
          <mxGeometry x="250" y="620" width="120" height="50" as="geometry" />
        </mxCell>
        
        <mxCell id="uc-admin-dashboard" value="Dashboard Amministrativa" style="ellipse;whiteSpace=wrap;html=1;fillColor=#F8CECC;strokeColor=#B85450;" vertex="1" parent="1">
          <mxGeometry x="250" y="680" width="120" height="50" as="geometry" />
        </mxCell>
        
        <!-- Entità del Sistema -->
        <mxCell id="entities-section" value="ENTITÀ DEL SISTEMA" style="text;html=1;strokeColor=none;fillColor=#F0F0F0;align=center;verticalAlign=middle;whiteSpace=wrap;rounded=1;fontSize=14;fontStyle=1;fontColor=#333333;" vertex="1" parent="1">
          <mxGeometry x="750" y="60" width="200" height="30" as="geometry" />
        </mxCell>
        
        <!-- Entità User -->
        <mxCell id="entity-user" value="User&#xa;&#xa;- id&#xa;- username&#xa;- password&#xa;- email&#xa;- role" style="whiteSpace=wrap;html=1;align=left;fillColor=#E1D5E7;strokeColor=#9673A6;fontSize=11;" vertex="1" parent="1">
          <mxGeometry x="750" y="120" width="120" height="100" as="geometry" />
        </mxCell>
        
        <!-- Entità Cliente -->
        <mxCell id="entity-cliente" value="Cliente&#xa;&#xa;- id&#xa;- nome&#xa;- cognome&#xa;- email&#xa;- telefono&#xa;- indirizzo" style="whiteSpace=wrap;html=1;align=left;fillColor=#E1D5E7;strokeColor=#9673A6;fontSize=11;" vertex="1" parent="1">
          <mxGeometry x="900" y="120" width="120" height="100" as="geometry" />
        </mxCell>
        
        <!-- Entità RichiestaInvestimento -->
        <mxCell id="entity-richiesta" value="RichiestaInvestimento&#xa;&#xa;- id&#xa;- importo&#xa;- dataRichiesta&#xa;- tipoInvestimento&#xa;- statoPratica&#xa;- clienteId" style="whiteSpace=wrap;html=1;align=left;fillColor=#E1D5E7;strokeColor=#9673A6;fontSize=11;" vertex="1" parent="1">
          <mxGeometry x="1050" y="120" width="140" height="100" as="geometry" />
        </mxCell>
        
        <!-- Entità PolizzaAssicurativa -->
        <mxCell id="entity-polizza" value="PolizzaAssicurativa&#xa;&#xa;- id&#xa;- numeroPolizza&#xa;- dataStipula&#xa;- tipoPolizza&#xa;- beneficiario&#xa;- copertura&#xa;- clienteId" style="whiteSpace=wrap;html=1;align=left;fillColor=#E1D5E7;strokeColor=#9673A6;fontSize=11;" vertex="1" parent="1">
          <mxGeometry x="1220" y="120" width="140" height="100" as="geometry" />
        </mxCell>
        
        <!-- Entità TipoInvestimento -->
        <mxCell id="entity-tipo-invest" value="TipoInvestimento&#xa;&#xa;- id&#xa;- nome&#xa;- descrizione&#xa;- rischioLivello&#xa;- rendimentoMin&#xa;- rendimentoMax" style="whiteSpace=wrap;html=1;align=left;fillColor=#E1D5E7;strokeColor=#9673A6;fontSize=11;" vertex="1" parent="1">
          <mxGeometry x="750" y="260" width="140" height="100" as="geometry" />
        </mxCell>
        
        <!-- Entità TipoPolizza -->
        <mxCell id="entity-tipo-polizza" value="TipoPolizza&#xa;&#xa;- id&#xa;- nome&#xa;- descrizione&#xa;- categoriaRischio&#xa;- premioBase&#xa;- durataMin" style="whiteSpace=wrap;html=1;align=left;fillColor=#E1D5E7;strokeColor=#9673A6;fontSize=11;" vertex="1" parent="1">
          <mxGeometry x="920" y="260" width="140" height="100" as="geometry" />
        </mxCell>
        
        <!-- Entità StatoPratica -->
        <mxCell id="entity-stato" value="StatoPratica&#xa;&#xa;- id&#xa;- nome&#xa;- descrizione&#xa;- ordine&#xa;- attivo" style="whiteSpace=wrap;html=1;align=left;fillColor=#E1D5E7;strokeColor=#9673A6;fontSize=11;" vertex="1" parent="1">
          <mxGeometry x="1090" y="260" width="120" height="100" as="geometry" />
        </mxCell>
        
        <!-- Flussi principali -->
        <mxCell id="flow-section" value="FLUSSI PRINCIPALI" style="text;html=1;strokeColor=none;fillColor=#FFF2CC;align=center;verticalAlign=middle;whiteSpace=wrap;rounded=1;fontSize=14;fontStyle=1;fontColor=#D6B656;" vertex="1" parent="1">
          <mxGeometry x="750" y="400" width="200" height="30" as="geometry" />
        </mxCell>
        
        <!-- Flusso 1 -->
        <mxCell id="flow1" value="1. LOGIN → AUTENTICAZIONE → DASHBOARD" style="rounded=1;whiteSpace=wrap;html=1;fillColor=#FFF2CC;strokeColor=#D6B656;fontSize=12;" vertex="1" parent="1">
          <mxGeometry x="750" y="450" width="300" height="30" as="geometry" />
        </mxCell>
        
        <!-- Flusso 2 -->
        <mxCell id="flow2" value="2. GESTIONE INVESTIMENTI → CRUD RICHIESTE" style="rounded=1;whiteSpace=wrap;html=1;fillColor=#D5E8D4;strokeColor=#82B366;fontSize=12;" vertex="1" parent="1">
          <mxGeometry x="750" y="490" width="300" height="30" as="geometry" />
        </mxCell>
        
        <!-- Flusso 3 -->
        <mxCell id="flow3" value="3. GESTIONE POLIZZE → CRUD POLIZZE" style="rounded=1;whiteSpace=wrap;html=1;fillColor=#D5E8D4;strokeColor=#82B366;fontSize=12;" vertex="1" parent="1">
          <mxGeometry x="750" y="530" width="300" height="30" as="geometry" />
        </mxCell>
        
        <!-- Flusso 4 -->
        <mxCell id="flow4" value="4. AMMINISTRAZIONE → GESTIONE SISTEMA" style="rounded=1;whiteSpace=wrap;html=1;fillColor=#F8CECC;strokeColor=#B85450;fontSize=12;" vertex="1" parent="1">
          <mxGeometry x="750" y="570" width="300" height="30" as="geometry" />
        </mxCell>
        
        <!-- Connessioni tra attori e use cases -->
        <mxCell id="conn1" value="" style="endArrow=none;html=1;rounded=0;entryX=0;entryY=0.5;entryDx=0;entryDy=0;exitX=1;exitY=0.3;exitDx=0;exitDy=0;exitPerimeter=0;" edge="1" parent="1" source="user-anonymous" target="uc-login">
          <mxGeometry width="50" height="50" relative="1" as="geometry">
            <mxPoint x="150" y="140" as="sourcePoint" />
            <mxPoint x="250" y="125" as="targetPoint" />
          </mxGeometry>
        </mxCell>
        
        <mxCell id="conn2" value="" style="endArrow=none;html=1;rounded=0;entryX=0;entryY=0.5;entryDx=0;entryDy=0;exitX=1;exitY=0.7;exitDx=0;exitDy=0;exitPerimeter=0;" edge="1" parent="1" source="user-anonymous" target="uc-authenticate">
          <mxGeometry width="50" height="50" relative="1" as="geometry">
            <mxPoint x="150" y="160" as="sourcePoint" />
            <mxPoint x="250" y="185" as="targetPoint" />
          </mxGeometry>
        </mxCell>
        
        <mxCell id="conn3" value="" style="endArrow=none;html=1;rounded=0;entryX=0;entryY=0.5;entryDx=0;entryDy=0;exitX=1;exitY=0.3;exitDx=0;exitDy=0;exitPerimeter=0;" edge="1" parent="1" source="user-authenticated" target="uc-dashboard">
          <mxGeometry width="50" height="50" relative="1" as="geometry">
            <mxPoint x="150" y="260" as="sourcePoint" />
            <mxPoint x="250" y="265" as="targetPoint" />
          </mxGeometry>
        </mxCell>
        
        <mxCell id="conn4" value="" style="endArrow=none;html=1;rounded=0;entryX=0;entryY=0.5;entryDx=0;entryDy=0;exitX=1;exitY=0.5;exitDx=0;exitDy=0;exitPerimeter=0;" edge="1" parent="1" source="user-authenticated" target="uc-investment-list">
          <mxGeometry width="50" height="50" relative="1" as="geometry">
            <mxPoint x="150" y="270" as="sourcePoint" />
            <mxPoint x="250" y="325" as="targetPoint" />
          </mxGeometry>
        </mxCell>
        
        <mxCell id="conn5" value="" style="endArrow=none;html=1;rounded=0;entryX=0;entryY=0.5;entryDx=0;entryDy=0;exitX=1;exitY=0.7;exitDx=0;exitDy=0;exitPerimeter=0;" edge="1" parent="1" source="user-authenticated" target="uc-insurance-list">
          <mxGeometry width="50" height="50" relative="1" as="geometry">
            <mxPoint x="150" y="285" as="sourcePoint" />
            <mxPoint x="250" y="385" as="targetPoint" />
          </mxGeometry>
        </mxCell>
        
        <mxCell id="conn6" value="" style="endArrow=none;html=1;rounded=0;entryX=0;entryY=0.5;entryDx=0;entryDy=0;exitX=1;exitY=1;exitDx=0;exitDy=0;exitPerimeter=0;" edge="1" parent="1" source="user-authenticated" target="uc-statistics">
          <mxGeometry width="50" height="50" relative="1" as="geometry">
            <mxPoint x="150" y="300" as="sourcePoint" />
            <mxPoint x="250" y="445" as="targetPoint" />
          </mxGeometry>
        </mxCell>
        
        <mxCell id="conn7" value="" style="endArrow=none;html=1;rounded=0;entryX=0;entryY=0.5;entryDx=0;entryDy=0;exitX=1;exitY=0.3;exitDx=0;exitDy=0;exitPerimeter=0;" edge="1" parent="1" source="admin" target="uc-admin-users">
          <mxGeometry width="50" height="50" relative="1" as="geometry">
            <mxPoint x="150" y="380" as="sourcePoint" />
            <mxPoint x="250" y="525" as="targetPoint" />
          </mxGeometry>
        </mxCell>
        
        <mxCell id="conn8" value="" style="endArrow=none;html=1;rounded=0;entryX=0;entryY=0.5;entryDx=0;entryDy=0;exitX=1;exitY=0.5;exitDx=0;exitDy=0;exitPerimeter=0;" edge="1" parent="1" source="admin" target="uc-admin-approval">
          <mxGeometry width="50" height="50" relative="1" as="geometry">
            <mxPoint x="150" y="390" as="sourcePoint" />
            <mxPoint x="250" y="585" as="targetPoint" />
          </mxGeometry>
        </mxCell>
        
        <mxCell id="conn9" value="" style="endArrow=none;html=1;rounded=0;entryX=0;entryY=0.5;entryDx=0;entryDy=0;exitX=1;exitY=0.7;exitDx=0;exitDy=0;exitPerimeter=0;" edge="1" parent="1" source="admin" target="uc-admin-types">
          <mxGeometry width="50" height="50" relative="1" as="geometry">
            <mxPoint x="150" y="405" as="sourcePoint" />
            <mxPoint x="250" y="645" as="targetPoint" />
          </mxGeometry>
        </mxCell>
        
        <mxCell id="conn10" value="" style="endArrow=none;html=1;rounded=0;entryX=0;entryY=0.5;entryDx=0;entryDy=0;exitX=1;exitY=1;exitDx=0;exitDy=0;exitPerimeter=0;" edge="1" parent="1" source="admin" target="uc-admin-dashboard">
          <mxGeometry width="50" height="50" relative="1" as="geometry">
            <mxPoint x="150" y="420" as="sourcePoint" />
            <mxPoint x="250" y="705" as="targetPoint" />
          </mxGeometry>
        </mxCell>
        
        <!-- Connessioni tra use cases e sistema -->
        <mxCell id="sys-conn1" value="" style="endArrow=none;html=1;rounded=0;entryX=0;entryY=0.25;entryDx=0;entryDy=0;exitX=1;exitY=0.5;exitDx=0;exitDy=0;" edge="1" parent="1" source="uc-login" target="system">
          <mxGeometry width="50" height="50" relative="1" as="geometry">
            <mxPoint x="370" y="125" as="sourcePoint" />
            <mxPoint x="450" y="140" as="targetPoint" />
          </mxGeometry>
        </mxCell>
        
        <mxCell id="sys-conn2" value="" style="endArrow=none;html=1;rounded=0;entryX=0;entryY=0.5;entryDx=0;entryDy=0;exitX=1;exitY=0.5;exitDx=0;exitDy=0;" edge="1" parent="1" source="uc-dashboard" target="system">
          <mxGeometry width="50" height="50" relative="1" as="geometry">
            <mxPoint x="370" y="265" as="sourcePoint" />
            <mxPoint x="450" y="160" as="targetPoint" />
          </mxGeometry>
        </mxCell>
        
        <!-- Relazioni tra entità -->
        <mxCell id="rel1" value="1:N" style="endArrow=none;html=1;rounded=0;entryX=0;entryY=0.5;entryDx=0;entryDy=0;exitX=1;exitY=0.5;exitDx=0;exitDy=0;" edge="1" parent="1" source="entity-cliente" target="entity-richiesta">
          <mxGeometry width="50" height="50" relative="1" as="geometry">
            <mxPoint x="1020" y="170" as="sourcePoint" />
            <mxPoint x="1050" y="170" as="targetPoint" />
          </mxGeometry>
        </mxCell>
        
        <mxCell id="rel2" value="1:N" style="endArrow=none;html=1;rounded=0;entryX=0;entryY=0.5;entryDx=0;entryDy=0;exitX=1;exitY=0.5;exitDx=0;exitDy=0;" edge="1" parent="1" source="entity-richiesta" target="entity-polizza">
          <mxGeometry width="50" height="50" relative="1" as="geometry">
            <mxPoint x="1190" y="170" as="sourcePoint" />
            <mxPoint x="1220" y="170" as="targetPoint" />
          </mxGeometry>
        </mxCell>
        
        <!-- Legenda -->
        <mxCell id="legend" value="LEGENDA&#xa;🎭 Attori: Anonimo, Autenticato, Admin&#xa;⚙️ Sistema: Core applicativo&#xa;📊 Entità: Modello dati&#xa;🔄 Flussi: Processi principali" style="whiteSpace=wrap;html=1;align=left;fillColor=#F5F5F5;strokeColor=#666666;fontSize=12;" vertex="1" parent="1">
          <mxGeometry x="1250" y="400" width="300" height="100" as="geometry" />
        </mxCell>
        
      </root>
    </mxGraphModel>
  </diagram>
</mxfile>